<?xml version="1.0" standalone="no"?>
<!DOCTYPE svg PUBLIC "-//W3C//DTD SVG 20010904//EN"
 "http://www.w3.org/TR/2001/REC-SVG-20010904/DTD/svg10.dtd">
<svg version="1.0" xmlns="http://www.w3.org/2000/svg"
 width="512.000000pt" height="512.000000pt" viewBox="0 0 512.000000 512.000000"
 preserveAspectRatio="xMidYMid meet">
<metadata>
Created by potrace 1.14, written by Peter Selinger 2001-2017
</metadata>
<g transform="translate(0.000000,512.000000) scale(0.100000,-0.100000)"
fill="#000000" stroke="none">
<path d="M2410 4888 c-332 -18 -650 -106 -970 -268 l-135 -69 -155 -4 c-133
-3 -164 -7 -220 -28 -166 -63 -288 -190 -340 -357 -12 -39 -22 -108 -26 -185
l-7 -122 -62 -100 c-173 -277 -289 -579 -346 -900 -27 -150 -37 -510 -20 -666
47 -415 180 -762 456 -1189 32 -50 174 -216 234 -275 l51 -49 0 1689 0 1690
24 51 c48 102 145 150 291 142 104 -5 156 -33 207 -111 25 -38 50 -61 80 -76
44 -21 52 -21 702 -21 l657 0 -8 38 c-4 20 -8 102 -8 182 0 122 4 158 24 225
39 136 102 257 173 331 l30 32 -64 11 c-176 30 -370 40 -568 29z"/>
<path d="M4477 3876 c-99 -216 -301 -394 -528 -465 -88 -27 -247 -44 -330 -36
l-69 7 0 -1586 0 -1586 55 25 c145 64 341 192 525 345 404 333 706 833 819
1351 69 322 69 714 0 1039 -58 269 -199 599 -359 838 -45 67 -83 122 -85 122
-2 0 -15 -24 -28 -54z"/>
<path d="M1321 3226 c-8 -9 -11 -56 -9 -147 l3 -134 148 -3 147 -3 0 -149 0
-149 -147 -3 -148 -3 0 -295 0 -295 148 -3 147 -3 0 -149 0 -149 -147 -3 -148
-3 -3 -125 c-4 -187 -18 -171 151 -168 l142 3 3 148 3 147 149 0 150 0 0 -145
c0 -142 0 -145 23 -150 12 -3 279 -4 592 -3 l570 3 3 448 2 447 -295 0 -295 0
0 150 0 149 148 3 147 3 0 145 0 145 -147 3 -148 3 0 144 0 145 -300 0 -300 0
0 -145 0 -145 -150 0 -149 0 -3 148 -3 147 -136 3 c-108 2 -139 0 -148 -12z
m1189 -436 l0 -150 -150 0 -150 0 0 -300 0 -300 -295 0 -295 0 0 150 0 150
145 0 145 0 0 150 0 150 150 0 150 0 0 150 0 150 150 0 150 0 0 -150z"/>
<path d="M2810 3085 l0 -145 145 0 145 0 0 145 0 145 -145 0 -145 0 0 -145z"/>
</g>
</svg>
